<svg id="Layer_1" data-name="Layer 1" xmlns="http://www.w3.org/2000/svg" viewBox="0 0 268.68 29.92"><defs><style>.cls-1{fill:#fff;}</style></defs><title>logo-black</title><path class="cls-1" d="M613,512.24V494.8a7.64,7.64,0,0,1,.4-2.6,4.54,4.54,0,0,1,1-1.76,5.27,5.27,0,0,1,1.5-1.06,5.66,5.66,0,0,1,1.68-.54,11.89,11.89,0,0,1,1.74-.12q10.32.28,12.88.64V494H620.68a3.51,3.51,0,0,0-1.2.16,1,1,0,0,0-.62.56,2.4,2.4,0,0,0-.22.68,6,6,0,0,0,0,.84v4.56l11.84.4v4.64l-11.84.36v4.56a3,3,0,0,0,.2,1.22,1.12,1.12,0,0,0,.64.64,2.35,2.35,0,0,0,.74.2l.9,0h11.16v4.6c-.67.08-2,.18-4.12.3s-4,.21-5.76.26l-2.6.12a12,12,0,0,1-1.72,0,6.86,6.86,0,0,1-1.76-.44,5.4,5.4,0,0,1-1.66-1,4.31,4.31,0,0,1-1.16-1.74A7.13,7.13,0,0,1,613,512.24Z" transform="translate(-613 -488.4)"/><path class="cls-1" d="M635.76,512.32v-23.6h5.6v22a3.41,3.41,0,0,0,.18,1.22,1,1,0,0,0,.64.62,4,4,0,0,0,.74.2,6.65,6.65,0,0,0,.92,0h10V518h-12C637.78,518,635.76,516.11,635.76,512.32Z" transform="translate(-613 -488.4)"/><path class="cls-1" d="M656.28,518l9.88-29.28h6.36L682,518h-6L674,511.52h-9.6L662.28,518Zm9.6-11.44h6.8l-3.28-10.48Z" transform="translate(-613 -488.4)"/><path class="cls-1" d="M684.56,498.56V496a10.23,10.23,0,0,1,.4-3,6.08,6.08,0,0,1,1.08-2.16,5.38,5.38,0,0,1,1.7-1.38,7.82,7.82,0,0,1,2.16-.76,16.05,16.05,0,0,1,2.58-.26,46.5,46.5,0,0,1,6.28.28,31.37,31.37,0,0,1,5,.88V494q-4.56-.41-9.8-.4a6.1,6.1,0,0,0-3,.46c-.58.33-.86,1.13-.86,2.38v1.44a2.81,2.81,0,0,0,.68,2.24,4,4,0,0,0,2.44.56h4.64a9.17,9.17,0,0,1,1.94.2,5.83,5.83,0,0,1,1.56.56,6.44,6.44,0,0,1,1.2.84,5.27,5.27,0,0,1,.92,1.08,9.51,9.51,0,0,1,.64,1.22,7.85,7.85,0,0,1,.4,1.3c.09.45.16.89.2,1.3s.06.83.06,1.26v2a10.64,10.64,0,0,1-.48,3.36,6.61,6.61,0,0,1-1.22,2.28,5.77,5.77,0,0,1-1.84,1.36,8.24,8.24,0,0,1-2.18.7,14.42,14.42,0,0,1-2.36.18,41.88,41.88,0,0,1-11.32-1.2v-4.4q4.39.43,10.2.44a9.62,9.62,0,0,0,1.3-.08,4.65,4.65,0,0,0,1.12-.32,1.76,1.76,0,0,0,.88-.78,2.74,2.74,0,0,0,.3-1.34v-1.56a3.25,3.25,0,0,0-.56-2.08,2.62,2.62,0,0,0-2.08-.68h-4.48Q684.56,506.28,684.56,498.56Z" transform="translate(-613 -488.4)"/><path class="cls-1" d="M707.44,493.88v-5.16h21.64v5.16H721V518h-5.6V493.88Z" transform="translate(-613 -488.4)"/><path class="cls-1" d="M732.32,518V488.72h5.6V518Z" transform="translate(-613 -488.4)"/><path class="cls-1" d="M741.35,503.28a43,43,0,0,1,.27-5.16,18.62,18.62,0,0,1,.93-4.1,9,9,0,0,1,1.8-3.1,7.48,7.48,0,0,1,2.86-1.86,11.6,11.6,0,0,1,4.1-.66,36,36,0,0,1,10.2,1.32v4.4l-.68-.08-.75-.08-1-.08-1.16-.08-1.26-.08-1.33-.08c-.44,0-.9-.05-1.37-.06l-1.33,0a13.86,13.86,0,0,0-1.86.1,4.56,4.56,0,0,0-1.44.46,2.77,2.77,0,0,0-1.1,1,8.16,8.16,0,0,0-.72,1.74,13.31,13.31,0,0,0-.43,2.66c-.08,1-.12,2.33-.12,3.82,0,3.47.39,5.95,1.17,7.46s2.29,2.26,4.5,2.26c1.26,0,2.62,0,4.1-.08s2.65-.11,3.5-.16l1.28-.08v4.36a34.29,34.29,0,0,1-10.2,1.12,10.42,10.42,0,0,1-4.68-1.06,7.5,7.5,0,0,1-3.09-3,14.63,14.63,0,0,1-1.66-4.64A32.64,32.64,0,0,1,741.35,503.28Z" transform="translate(-613 -488.4)"/><path class="cls-1" d="M779.08,518.19V488.9h12.44q10.15,0,10.16,14.77a26.42,26.42,0,0,1-.6,5.89,15.28,15.28,0,0,1-1.8,4.59,8.18,8.18,0,0,1-3.18,3,9.76,9.76,0,0,1-4.58,1Zm5.6-5h6.4q5,0,5-9.56a29.38,29.38,0,0,0-.24-4,14.51,14.51,0,0,0-.64-2.79,4.89,4.89,0,0,0-1-1.76,3.49,3.49,0,0,0-1.38-.92,5,5,0,0,0-1.7-.27h-6.4Z" transform="translate(-613 -488.4)"/><path class="cls-1" d="M804.52,518.19l9.88-29.29h6.36l9.52,29.29h-6l-2.08-6.49h-9.6l-2.12,6.49Zm9.6-11.45h6.8l-3.28-10.47Z" transform="translate(-613 -488.4)"/><path class="cls-1" d="M832.08,494.06V488.9h21.64v5.16H845.6v24.13H840V494.06Z" transform="translate(-613 -488.4)"/><path class="cls-1" d="M855.92,518.19l9.88-29.29h6.36l9.52,29.29h-6l-2.08-6.49H864l-2.12,6.49Zm9.6-11.45h6.8L869,496.27Z" transform="translate(-613 -488.4)"/></svg>