<svg xmlns="http://www.w3.org/2000/svg" viewBox="0 0 40 40" width="20" height="20"><path fill="#98ccfd" d="M6.5 37.5L6.5 2.5 24.793 2.5 33.5 11.207 33.5 37.5z"/><path fill="#4788c7" d="M24.586,3L33,11.414V37H7V3H24.586 M25,2H6v36h28V11L25,2L25,2z"/><path fill="#dff0fe" d="M24.5 11.5L24.5 2.5 24.793 2.5 33.5 11.207 33.5 11.5z"/><path fill="#4788c7" d="M25,3.414L32.586,11H25V3.414 M25,2h-1v10h10v-1L25,2L25,2z"/><path fill="#fff" d="M13.372 17.924h1.703v5.968c0 2.521-1.222 2.899-2.457 2.899-.351 0-.676-.053-.858-.131l.144-1.43c.156.052.338.065.559.065.494 0 .91-.195.91-1.326V17.924zM17.324 18.055c.48-.104 1.131-.17 1.781-.17 1.014 0 1.819.144 2.379.677.52.455.754 1.183.754 1.924 0 .949-.286 1.625-.741 2.106-.546.585-1.417.845-2.132.845-.117 0-.221 0-.338-.013v3.263h-1.703V18.055zM19.027 22.045c.091.014.182.014.286.014.857 0 1.234-.611 1.234-1.431 0-.767-.312-1.364-1.104-1.364-.156 0-.313.025-.416.064V22.045zM28.452 26.452c-.377.156-1.17.313-1.808.313-1.014 0-1.781-.286-2.353-.871-.754-.729-1.157-2.028-1.131-3.536.038-3.186 1.846-4.512 3.73-4.512.663 0 1.145.131 1.417.261l-.286 1.469c-.26-.13-.585-.195-1.001-.195-1.17 0-2.093.793-2.093 3.068 0 2.106.819 2.873 1.625 2.873.156 0 .273-.013.338-.039v-2.119h-.793v-1.391h2.354V26.452z"/></svg>